<svg width="24.000000" height="24.000000" viewBox="0 0 24 24" fill="none" xmlns="http://www.w3.org/2000/svg" xmlns:xlink="http://www.w3.org/1999/xlink">
	<desc>
			Created with Pixso.
	</desc>
	<defs/>
	<rect id="操作图标/文件" width="24.000000" height="24.000000" transform="translate(-0.461426 0.000000)" fill="#FFFFFF" fill-opacity="0"/>
	<path id="合并" d="M6.87183 4L13.8718 4L14.4553 4.57141L14.6218 4.57141L14.6218 4.73468L18.5386 8.57141L18.5386 17.7143C18.5386 18.9766 17.4939 20 16.2053 20L6.87183 20C5.58325 20 4.53857 18.9766 4.53857 17.7143L4.53857 6.28571C4.53857 5.02338 5.58325 4 6.87183 4ZM13.1218 5.14288L6.87183 5.14288C6.77539 5.14288 6.68188 5.15381 6.59106 5.17578C6.53223 5.19 6.47461 5.2088 6.41821 5.23218C6.35693 5.25751 6.29883 5.28748 6.2439 5.32202C6.17334 5.36633 6.10767 5.41815 6.04688 5.4776C5.98633 5.53705 5.93335 5.60132 5.88818 5.67041C5.85278 5.72443 5.82227 5.78131 5.79639 5.84119C5.77246 5.89655 5.75342 5.95294 5.73877 6.01056C5.73804 6.01392 5.73706 6.01733 5.73633 6.02075L5.73633 6.02075C5.71558 6.10657 5.70532 6.19489 5.70532 6.28571L5.70532 17.7143C5.70532 17.8087 5.71655 17.9005 5.73877 17.9895C5.75342 18.0471 5.77246 18.1035 5.79639 18.1588C5.82227 18.2187 5.85278 18.2756 5.88818 18.3296C5.93335 18.3987 5.98633 18.463 6.04688 18.5224C6.10767 18.5818 6.17334 18.6337 6.2439 18.678C6.29883 18.7125 6.35693 18.7425 6.41821 18.7678C6.47461 18.7912 6.53223 18.81 6.59106 18.8242C6.68188 18.8462 6.77539 18.8571 6.87183 18.8571L16.2053 18.8571C16.3018 18.8571 16.3953 18.8461 16.4863 18.8242C16.5449 18.81 16.6025 18.7912 16.6589 18.7678C16.7202 18.7425 16.7781 18.7125 16.8333 18.678C16.9038 18.6337 16.9695 18.5818 17.0303 18.5224C17.0908 18.463 17.1438 18.3987 17.189 18.3296C17.2244 18.2756 17.2549 18.2187 17.2808 18.1588C17.3047 18.1035 17.3237 18.047 17.3384 17.9894C17.3606 17.9005 17.3718 17.8087 17.3718 17.7143L17.3718 9.32141L15.3718 9.32141C15.2085 9.32141 15.0491 9.3045 14.8931 9.27057L14.8931 9.27057C14.7578 9.24121 14.6255 9.1991 14.4958 9.14429C14.3667 9.08972 14.2449 9.02435 14.1299 8.94824C14.0051 8.86566 13.8889 8.77039 13.781 8.66241C13.6729 8.5545 13.5776 8.43811 13.4951 8.31342L13.4951 8.31342C13.4189 8.19855 13.3535 8.07654 13.2991 7.94745C13.2441 7.81787 13.2021 7.68549 13.1729 7.55035C13.1389 7.39441 13.1218 7.23474 13.1218 7.07141L13.1218 5.14288ZM16.123 7.82141L14.6218 6.35095L14.6218 7.07141C14.6218 7.17499 14.6401 7.27094 14.6768 7.35931L14.6768 7.35931L14.6768 7.35938C14.7134 7.44775 14.7683 7.52856 14.8416 7.60175C14.9148 7.67499 14.9956 7.72992 15.084 7.76654L15.084 7.76654C15.1724 7.8031 15.2683 7.82141 15.3718 7.82141L16.123 7.82141ZM12.1221 10.1072L7.45532 10.1072C7.0354 10.1072 6.70532 10.4372 6.70532 10.8572C6.70532 11.2772 7.0354 11.6072 7.45532 11.6072L12.1221 11.6072C12.542 11.6072 12.8721 11.2772 12.8721 10.8572C12.8721 10.4372 12.542 10.1072 12.1221 10.1072ZM7.45532 13.5269L15.6526 13.5269C16.0725 13.5269 16.4026 13.8569 16.4026 14.2769C16.4026 14.6968 16.0725 15.0269 15.6526 15.0269L7.45532 15.0269C7.0354 15.0269 6.70532 14.6968 6.70532 14.2769C6.70532 13.8569 7.0354 13.5269 7.45532 13.5269Z" clip-rule="evenodd" fill="#191919" fill-opacity="1.000000" fill-rule="evenodd"/>
</svg>
