<svg width="106.000000" height="40.000000" viewBox="0 0 106 40" fill="none" xmlns="http://www.w3.org/2000/svg" xmlns:xlink="http://www.w3.org/1999/xlink">
	<desc>
			Created with Pixso.
	</desc>
	<defs/>
	<rect id="矩形 copy 8" width="40.000000" height="40.000000" fill="#D8D8D8" fill-opacity="0"/>
	<rect id="矩形 copy 8" x="0.416626" y="0.416687" width="39.166668" height="39.166668" stroke="#979797" stroke-opacity="0" stroke-width="0.833333"/>
	<path id="Combined Shape" d="M24.5409 9.85846L23.5543 8.51514L24.1852 8.0567C24.2896 7.98157 24.3936 7.90717 24.4973 7.83344L25.115 7.39899C25.2172 7.32794 25.3191 7.25757 25.4204 7.18787L26.0244 6.77795L26.6188 6.3847C26.8153 6.25641 27.0101 6.13098 27.2032 6.00836L27.7776 5.64911L28.3413 5.30719C28.5275 5.19617 28.7118 5.08807 28.8943 4.98291L29.436 4.67645C29.7935 4.47815 30.1432 4.29187 30.4849 4.11798L30.9912 3.86639L31.4852 3.63361C31.8916 3.44745 32.2847 3.28113 32.6637 3.13525L33.1117 2.96997C35.4644 2.1413 37.2262 2.15851 38.1809 3.18231C38.6487 3.68402 38.8506 4.38062 38.8124 5.23859C38.3315 4.8175 37.7314 4.54059 37.0734 4.46753C37.041 4.41351 37.0039 4.36395 36.9619 4.31897C36.6714 4.00745 36.092 3.93042 35.277 4.07501L34.9796 4.13525C34.6216 4.21619 34.2245 4.33441 33.7924 4.48907L33.4135 4.63049L33.0177 4.78961L32.6058 4.96637C32.5359 4.99725 32.4653 5.02893 32.394 5.06128L31.9589 5.2641C31.8851 5.29938 31.8108 5.33533 31.7357 5.37201L31.2784 5.60071C31.1237 5.67981 30.9664 5.76172 30.8071 5.8465L30.3221 6.10919C30.2402 6.15436 30.1577 6.20026 30.0747 6.24683L29.5703 6.53473L29.0537 6.83917L28.5253 7.16022L27.9857 7.49756L27.4353 7.8512L26.8748 8.22089L26.3046 8.60663L25.7251 9.00818L25.1371 9.42548L24.5409 9.85846ZM36.7548 10.2819C38.0773 10.2819 39.1516 9.16138 39.1516 7.78192C39.1516 6.40247 38.0773 5.28192 36.7548 5.28192C35.4324 5.28192 34.358 6.40247 34.358 7.78192C34.358 9.16138 35.4324 10.2819 36.7548 10.2819ZM34.91 10.5405L34.6346 10.9621C34.587 11.034 34.5387 11.1063 34.4899 11.179L34.1898 11.6195L33.8756 12.0687L33.5477 12.5263L33.2063 12.9918L32.8516 13.4648L32.4836 13.945L32.1029 14.4319L31.7096 14.9251L31.3038 15.4243L30.8859 15.9289L30.2366 16.6953L29.7891 17.212L29.3302 17.7328L28.8602 18.2574L28.3793 18.7853L27.6377 19.5825L26.8728 20.3848L26.3503 20.9219L25.818 21.4604L25.0016 22.2697L24.4457 22.8097L23.8807 23.3496L23.307 23.889L22.7289 24.4237L22.1509 24.9496L21.5734 25.4665L20.7091 26.2245L20.1349 26.718L19.5626 27.2017L18.7089 27.9088L18.1433 28.3674L17.5813 28.8157L17.0232 29.2534L16.4694 29.6802L15.9202 30.0961L15.3761 30.5008L14.8375 30.8942L14.3049 31.2759L13.5182 31.8264L13.0023 32.1783L12.2424 32.6832L11.7458 33.004L11.2576 33.3122L10.7783 33.6074L10.0768 34.0255L9.62134 34.2874C9.54626 34.3299 9.47168 34.3718 9.39746 34.4132L8.95776 34.6546L8.52893 34.882L8.11133 35.0953C8.04272 35.1296 7.97461 35.1635 7.90698 35.1966L7.50732 35.3883L7.12 35.5654L6.74536 35.7276C6.6228 35.7792 6.50232 35.8282 6.38416 35.8748L6.03638 36.0068C5.8092 36.0897 5.59143 36.1623 5.38354 36.2244L5.07922 36.3094C4.83191 36.3738 4.60059 36.4214 4.38623 36.4518L4.13721 36.48C3.53552 36.5297 3.0907 36.4229 2.83203 36.1456C2.46826 35.7554 2.51746 34.8896 2.96472 33.6646L3.09656 33.3217C3.2146 33.0286 3.35315 32.7175 3.51196 32.3897L3.7124 31.9885L3.93213 31.5718C4.00867 31.4304 4.08838 31.2866 4.17126 31.1403L4.42969 30.6942L4.7074 30.2343L5.00415 29.7609L5.32007 29.2748L5.65503 28.7762L6.00879 28.2659C6.12988 28.0939 6.25415 27.92 6.38159 27.7443L6.77307 27.212L5.43701 26.2156L5.22888 26.4965L4.82605 27.0508L4.44153 27.5951L4.07568 28.1289L3.72852 28.652L3.40051 29.1643L3.09167 29.6654C3.04187 29.748 2.99292 29.8301 2.9447 29.9117L2.66541 30.3957C0.869995 33.5831 0.405518 35.9872 1.61316 37.2822C2.64746 38.3914 4.7229 38.2701 7.45715 37.1725L7.89429 36.9911C7.96814 36.9595 8.04224 36.9272 8.11694 36.8944L8.56982 36.6891L9.03296 36.4681C9.11096 36.43 9.18933 36.3912 9.26819 36.3518L9.74573 36.1077L10.2327 35.8486C10.3146 35.8041 10.3969 35.7591 10.4795 35.7134L10.9797 35.4319C11.1478 35.3357 11.3174 35.2371 11.4883 35.136L12.0051 34.8257C12.0919 34.7728 12.179 34.7192 12.2664 34.6652L12.7947 34.3338L13.3302 33.9886L13.8728 33.6299L14.4219 33.2578L14.9773 32.8726L15.5386 32.4745L16.1055 32.0638L16.6777 31.6406L17.2548 31.2052L17.8365 30.7578L18.4225 30.2986L19.3088 29.5883L19.9041 29.1006L20.5023 28.6019L21.1034 28.0925C21.2037 28.0067 21.3042 27.9205 21.4048 27.8338L22.0094 27.3087L22.616 26.7733L23.224 26.2278L23.8334 25.6727L24.4436 25.108L25.0496 24.5386L25.6459 23.9694L26.2324 23.4008L27.0931 22.5497L27.6539 21.984L28.2041 21.4199L28.7433 20.8578L29.2712 20.2982L30.0416 19.4636C30.1259 19.3712 30.2095 19.279 30.2926 19.1869L30.7856 18.636L31.2664 18.0887L31.7347 17.5454L32.1904 17.0063L32.6333 16.4717L33.063 15.942L33.4792 15.4175L33.8818 14.8984L34.2705 14.3853L34.6451 13.8782L35.0054 13.3776C35.0642 13.2947 35.1224 13.212 35.1801 13.1298L35.5182 12.6394C35.6285 12.4772 35.7362 12.3161 35.8414 12.1563L36.1494 11.6808L36.4419 11.2132C36.4636 11.1779 36.4851 11.1427 36.5066 11.1075C35.9181 11.0673 35.3718 10.8645 34.91 10.5405Z" clip-rule="evenodd" fill="#000000" fill-opacity="1.000000" fill-rule="evenodd"/>
	<path id="Oval Copy" d="M24.99 31.65C32.37 27.4 35.55 19.1 32.1 13.12C28.64 7.14 19.87 5.75 12.5 10C5.12 14.26 1.94 22.56 5.39 28.54C8.85 34.52 17.62 35.91 24.99 31.65Z" fill="#FF9649" fill-opacity="1.000000" fill-rule="evenodd"/>
	<path id="Oval Copy" d="M35.11 16.19Q34.73 14.14 33.63 12.24Q32.52 10.33 30.95 8.98Q28.21 6.64 24.04 5.98Q22.06 5.66 20.1 5.79Q15.79 6.06 11.61 8.47Q7.43 10.88 5.04 14.48Q3.95 16.12 3.24 17.99Q1.73 21.93 2.38 25.47Q2.76 27.51 3.86 29.42Q4.97 31.33 6.54 32.68Q9.28 35.02 13.45 35.68Q15.43 35.99 17.39 35.87Q21.7 35.6 25.88 33.18Q30.06 30.77 32.45 27.17Q33.54 25.54 34.25 23.66Q35.76 19.72 35.11 16.19ZM24.99 31.65C32.37 27.4 35.55 19.1 32.1 13.12C28.64 7.14 19.87 5.75 12.5 10C5.12 14.26 1.94 22.56 5.39 28.54C8.85 34.52 17.62 35.91 24.99 31.65Z" fill="#000000" fill-opacity="1.000000" fill-rule="evenodd"/>
	<mask id="mask_9_1107" fill="white">
		<path id="形状结合" d="M11.3434 35.212C10.647 35.0035 9.97351 34.7466 9.32861 34.4423L9.38232 34.4128C9.45654 34.3714 9.53113 34.3295 9.6062 34.2869L10.0616 34.025L10.7631 33.6069L11.2355 33.3161C11.9458 33.5685 12.6888 33.762 13.4557 33.8952L13.3151 33.9882L12.7795 34.3334L12.2512 34.6648C12.1638 34.7189 12.0767 34.7723 11.9899 34.8253L11.4731 35.1356C11.4298 35.1612 11.3866 35.1866 11.3434 35.212ZM34.4462 14.1265C34.2275 13.5289 33.9598 12.9435 33.6412 12.3743L33.5326 12.5259L33.1912 12.9914L32.8363 13.4644L32.4685 13.9446L32.0878 14.4315L31.6945 14.9247L31.2886 15.4238L30.8707 15.9285L30.2213 16.6949L29.7739 17.2116L29.3151 17.7324L28.845 18.257L28.364 18.7849L27.6226 19.582L26.8577 20.3844L26.3352 20.9215L25.8029 21.46L24.9863 22.2693L24.4305 22.8093L23.8656 23.3492L23.2919 23.8886L22.7136 24.4233L22.1356 24.9492L21.5582 25.4661L20.694 26.2241L20.1196 26.7175L19.5474 27.2013L18.6936 27.9084L18.1282 28.367L17.5662 28.8152L17.0079 29.2529L16.4541 29.6798L15.9049 30.0957L15.361 30.5004L14.8224 30.8937L14.2898 31.2755L13.5031 31.8259L12.9871 32.1779L12.2273 32.6827L11.7306 33.0037L11.2473 33.3087C11.9548 33.5624 12.6949 33.7577 13.459 33.893L13.8575 33.6295L14.4067 33.2574L14.962 32.8722L15.5234 32.4741L16.0903 32.0634L16.6625 31.6402L17.2396 31.2048L17.8214 30.7574L18.4073 30.2982L19.2936 29.5878L19.8888 29.1002L20.4872 28.6015L21.0881 28.092C21.1886 28.0063 21.2891 27.92 21.3896 27.8334L21.9943 27.3082L22.6007 26.7728L23.2089 26.2274L23.8182 25.6722L24.4285 25.1075L25.0344 24.5381L25.6307 23.969L26.2172 23.4004L27.078 22.5493L27.6388 21.9836L28.1888 21.4195L28.728 20.8574L29.256 20.2977L30.0265 19.4631C30.1106 19.3708 30.1943 19.2786 30.2775 19.1865L30.7704 18.6356L31.2512 18.0883L31.7196 17.545L32.1753 17.0059L32.618 16.4713L33.0477 15.9416L33.464 15.4171L33.8666 14.898L34.2554 14.3848L34.4462 14.1265Z" clip-rule="evenodd" fill="" fill-opacity="1.000000" fill-rule="evenodd"/>
	</mask>
	<path id="形状结合" d="M11.3434 35.212C10.647 35.0035 9.97351 34.7466 9.32861 34.4423L9.38232 34.4128C9.45654 34.3714 9.53113 34.3295 9.6062 34.2869L10.0616 34.025L10.7631 33.6069L11.2355 33.3161C11.9458 33.5685 12.6888 33.762 13.4557 33.8952L13.3151 33.9882L12.7795 34.3334L12.2512 34.6648C12.1638 34.7189 12.0767 34.7723 11.9899 34.8253L11.4731 35.1356C11.4298 35.1612 11.3866 35.1866 11.3434 35.212ZM34.4462 14.1265C34.2275 13.5289 33.9598 12.9435 33.6412 12.3743L33.5326 12.5259L33.1912 12.9914L32.8363 13.4644L32.4685 13.9446L32.0878 14.4315L31.6945 14.9247L31.2886 15.4238L30.8707 15.9285L30.2213 16.6949L29.7739 17.2116L29.3151 17.7324L28.845 18.257L28.364 18.7849L27.6226 19.582L26.8577 20.3844L26.3352 20.9215L25.8029 21.46L24.9863 22.2693L24.4305 22.8093L23.8656 23.3492L23.2919 23.8886L22.7136 24.4233L22.1356 24.9492L21.5582 25.4661L20.694 26.2241L20.1196 26.7175L19.5474 27.2013L18.6936 27.9084L18.1282 28.367L17.5662 28.8152L17.0079 29.2529L16.4541 29.6798L15.9049 30.0957L15.361 30.5004L14.8224 30.8937L14.2898 31.2755L13.5031 31.8259L12.9871 32.1779L12.2273 32.6827L11.7306 33.0037L11.2473 33.3087C11.9548 33.5624 12.6949 33.7577 13.459 33.893L13.8575 33.6295L14.4067 33.2574L14.962 32.8722L15.5234 32.4741L16.0903 32.0634L16.6625 31.6402L17.2396 31.2048L17.8214 30.7574L18.4073 30.2982L19.2936 29.5878L19.8888 29.1002L20.4872 28.6015L21.0881 28.092C21.1886 28.0063 21.2891 27.92 21.3896 27.8334L21.9943 27.3082L22.6007 26.7728L23.2089 26.2274L23.8182 25.6722L24.4285 25.1075L25.0344 24.5381L25.6307 23.969L26.2172 23.4004L27.078 22.5493L27.6388 21.9836L28.1888 21.4195L28.728 20.8574L29.256 20.2977L30.0265 19.4631C30.1106 19.3708 30.1943 19.2786 30.2775 19.1865L30.7704 18.6356L31.2512 18.0883L31.7196 17.545L32.1753 17.0059L32.618 16.4713L33.0477 15.9416L33.464 15.4171L33.8666 14.898L34.2554 14.3848L34.4462 14.1265Z" clip-rule="evenodd" fill="#FFFFFF" fill-opacity="1.000000" fill-rule="evenodd" mask="url(#mask_9_1107)"/>
	<path id="形状结合" d="" clip-rule="evenodd" fill="#000000" fill-opacity="0.000000" fill-rule="evenodd"/>
	<ellipse id="Oval Copy 20" cx="36.718750" cy="7.782227" rx="2.396730" ry="2.500001" fill="#FF9649" fill-opacity="1.000000"/>
	<ellipse id="Oval Copy 20" cx="36.718750" cy="7.782227" rx="1.980064" ry="2.083334" stroke="#FFFFFF" stroke-opacity="0" stroke-width="0.833333"/>
	<path id="Pro" d="M13.8857 22.6923L13.4091 25.3681L11.7083 25.3681L13.1057 17.4381L15.2616 17.4381C16.0909 17.4381 16.7241 17.6451 17.161 18.0593C17.1616 18.0598 17.1622 18.0604 17.1628 18.061C17.3066 18.1977 17.4268 18.3482 17.5232 18.5126C17.7198 18.8478 17.8182 19.2408 17.8182 19.6915C17.8182 19.8648 17.8002 20.0598 17.764 20.2764C17.6597 20.8757 17.4348 21.3662 17.0897 21.7479L17.0897 21.7479L17.0895 21.7481C16.9813 21.8677 16.8613 21.9766 16.7295 22.0748C16.177 22.4865 15.4674 22.6923 14.6007 22.6923L13.8857 22.6923ZM14.6653 21.219L14.1021 21.219L14.5137 18.9115L14.9904 18.9115C15.2753 18.9115 15.5083 18.98 15.6896 19.1171L15.6896 19.1171L15.6898 19.1172L15.6899 19.1173C15.697 19.1226 15.7039 19.1281 15.7107 19.1335C15.7408 19.1577 15.7684 19.184 15.7935 19.2125L15.7937 19.2126C15.9226 19.3587 15.9871 19.5616 15.9871 19.8215C15.9871 19.9226 15.9762 20.0273 15.9545 20.1356C15.8823 20.5401 15.7343 20.8218 15.5104 20.9807C15.2865 21.1395 15.0048 21.219 14.6653 21.219ZM24.562 25.509C24.8888 25.509 25.197 25.4569 25.4863 25.3528C25.7725 25.2499 26.0404 25.0961 26.2899 24.8915C26.7919 24.4798 27.1331 23.7792 27.3137 22.7898C27.3715 22.4431 27.4004 22.1434 27.4004 21.8906C27.4004 21.1542 27.2164 20.5948 26.8484 20.2125C26.8411 20.2048 26.8336 20.1973 26.8262 20.1898C26.7356 20.0993 26.6381 20.0195 26.5334 19.9504L26.5334 19.9503C26.1956 19.7272 25.7839 19.6156 25.2987 19.6156C24.9893 19.6156 24.6958 19.6627 24.4182 19.7568C24.1128 19.8604 23.8267 20.0209 23.5599 20.2385C23.0508 20.6538 22.7059 21.3562 22.5254 22.3456C22.4675 22.6923 22.4387 22.9956 22.4387 23.2556C22.4387 23.9848 22.6208 24.5388 22.9851 24.9175C22.9924 24.9251 22.9999 24.9327 23.0074 24.9402C23.0731 25.006 23.1431 25.066 23.2172 25.1204C23.5704 25.3795 24.0188 25.509 24.562 25.509ZM19.9191 22.6924L19.4424 25.3682L17.8174 25.3682L18.8141 19.7674L20.2549 19.7674C20.2188 20.1574 20.1971 20.403 20.1899 20.5041C20.3849 20.2151 20.6088 19.9949 20.8616 19.8432C21.0281 19.7433 21.2008 19.6763 21.3798 19.6423L21.3799 19.6422C21.4727 19.6246 21.5671 19.6157 21.6632 19.6157C21.8727 19.6157 22.0587 19.6609 22.2212 19.7512C22.3837 19.8414 22.5046 19.9624 22.5841 20.1141L21.6632 21.4791C21.5188 21.2769 21.3202 21.1757 21.0674 21.1757C20.9565 21.1757 20.8529 21.1943 20.7563 21.2316C20.35 21.3883 20.0708 21.8753 19.9191 22.6924ZM24.3773 23.9656C24.4646 24.0264 24.5731 24.0568 24.7029 24.0568C24.7609 24.0568 24.8169 24.0496 24.8711 24.0351C25.019 23.9954 25.1526 23.9016 25.2716 23.7535C25.4341 23.5513 25.5623 23.183 25.6561 22.6485C25.7067 22.3163 25.7321 22.0779 25.7321 21.9335C25.7321 21.5377 25.6394 21.2758 25.4542 21.1478C25.3657 21.0866 25.2561 21.056 25.1254 21.056C24.9087 21.056 24.7209 21.1607 24.562 21.3702C24.4031 21.5797 24.2731 21.9624 24.172 22.5185C24.1287 22.7785 24.1071 23.006 24.1071 23.201C24.1071 23.5853 24.1971 23.8402 24.3773 23.9656Z" clip-rule="evenodd" fill="#000000" fill-opacity="1.000000" fill-rule="evenodd"/>
	<mask id="mask9_1117" mask-type="alpha" maskUnits="userSpaceOnUse" x="48.000000" y="0.000000" width="58.000000" height="40.000000">
		<rect id="矩形" x="48.000000" width="58.000000" height="40.000000" fill="#000000" fill-opacity="1.000000"/>
		<rect id="矩形" x="48.500000" y="0.500000" width="57.000000" height="39.000000" stroke="#979797" stroke-opacity="0" stroke-width="1.000000"/>
	</mask>
	<g mask="url(#mask9_1117)">
		<g opacity="0.000000">
			<rect id="矩形" x="48.000000" y="8.000000" width="36.000000" height="8.000000" fill="#000000" fill-opacity="1.000000"/>
			<rect id="矩形" x="48.250000" y="8.250000" width="35.500000" height="7.500000" stroke="#000000" stroke-opacity="1.000000" stroke-width="0.500000"/>
		</g>
		<path id="形状结合" d="M58.955 8C59.619 8 60.2001 8.1546 60.6981 8.46375C60.9454 8.61725 61.1492 8.80273 61.3094 9.02026L61.3096 9.02032L61.3096 9.02045C61.4473 9.2074 61.553 9.41797 61.6265 9.65222L61.6632 9.78131L60.2104 10.614L60.1661 10.4987C60.056 10.2374 59.8995 10.0298 59.6968 9.87616C59.4651 9.7005 59.1832 9.61267 58.8512 9.61267C58.5675 9.61267 58.3375 9.67938 58.1611 9.81293C58.0623 9.88776 57.9911 9.97473 57.9476 10.0738L57.9476 10.0739L57.9476 10.0739L57.9475 10.0739C57.9136 10.1516 57.8965 10.2368 57.8965 10.3294C57.8965 10.4046 57.9097 10.4745 57.9358 10.5391L57.9359 10.5391L57.9359 10.5392L57.9359 10.5392L57.9359 10.5393C57.9661 10.6133 58.0134 10.6804 58.0781 10.7405C58.1991 10.8529 58.3496 10.9442 58.5294 11.0145L58.7023 11.079L58.9124 11.1522L59.2974 11.278C59.8092 11.4326 60.2242 11.5854 60.5425 11.7365C60.8607 11.8876 61.1375 12.1142 61.3726 12.4163L61.3735 12.4175L61.3735 12.4175C61.6082 12.7195 61.7255 13.1126 61.7255 13.5969C61.7255 14.166 61.5784 14.6298 61.2844 14.9882C61.152 15.1496 61.0044 15.2908 60.8417 15.4116L60.8417 15.4116C60.6433 15.5589 60.4225 15.676 60.1793 15.7628C59.7366 15.921 59.2834 16 58.8201 16C58.3441 16 57.8956 15.9242 57.4742 15.7726L57.4741 15.7726L57.4739 15.7725L57.4738 15.7725L57.4738 15.7725L57.4729 15.7722L57.4729 15.7722C57.276 15.7012 57.0852 15.6138 56.9004 15.5099C56.5796 15.3295 56.3179 15.1047 56.1151 14.8354L56.1151 14.8354L56.115 14.8354L56.115 14.8353L56.115 14.8353L56.115 14.8353L56.1149 14.8351L56.1147 14.835C55.9786 14.6541 55.8691 14.4532 55.7864 14.2324L55.7382 14.0922L57.1702 13.2595L57.2306 13.3901C57.3793 13.686 57.5822 13.92 57.8395 14.0922C57.8813 14.1203 57.9243 14.1464 57.9685 14.1704L57.9686 14.1705L57.9688 14.1705L57.969 14.1707C58.234 14.3151 58.5385 14.3873 58.8823 14.3873C59.1797 14.3873 59.4202 14.3294 59.6034 14.2134C59.688 14.16 59.7531 14.0948 59.7986 14.0182L59.7986 14.0182L59.7986 14.0182C59.8518 13.9286 59.8784 13.8234 59.8784 13.7023C59.8784 13.594 59.8566 13.4969 59.8129 13.4108L59.8127 13.4107C59.7827 13.3516 59.7423 13.2977 59.6917 13.249C59.5671 13.1296 59.4115 13.0312 59.2247 12.9539L59.0941 12.9028L58.9426 12.8487L58.708 12.7721L58.436 12.6904C57.938 12.5428 57.5316 12.3953 57.2168 12.2477C56.9021 12.1002 56.6306 11.877 56.4023 11.5784C56.174 11.2797 56.0598 10.888 56.0598 10.4031C56.0598 9.92841 56.1678 9.52307 56.3838 9.18713L56.3838 9.18713L56.3839 9.18707C56.4108 9.14514 56.4395 9.10431 56.4697 9.06458C56.5598 8.94641 56.6589 8.8382 56.7671 8.73987L56.7671 8.73981L56.7673 8.73969L56.7673 8.73969L56.7675 8.73956C56.9872 8.53992 57.2443 8.38116 57.5386 8.26349C57.5614 8.25433 57.5844 8.24542 57.6074 8.23676L57.6077 8.23669L57.6086 8.23633L57.6088 8.23627L57.6118 8.23511L57.6134 8.2345L57.6135 8.23444L57.6136 8.23444L57.6138 8.23438C58.0316 8.07812 58.4786 8 58.955 8ZM81.0665 8.24133C80.6417 8.08044 80.1864 8 79.7006 8C79.2252 8 78.7783 8.07697 78.3596 8.23096C78.175 8.29889 77.996 8.38171 77.8224 8.47955C77.2551 8.79932 76.8073 9.26129 76.4786 9.8656C76.15 10.4699 75.9858 11.1796 75.9858 11.9948C75.9858 12.7421 76.1216 13.3995 76.3932 13.9669L76.5028 13.9185L76.5671 13.8889C77.0111 13.6782 77.5042 13.3918 78.0181 13.046C77.9119 12.7338 77.8588 12.3833 77.8588 11.9943C77.8588 11.5306 77.9365 11.1213 78.0922 10.7664C78.2478 10.4116 78.464 10.1375 78.7407 9.94427C79.0175 9.75104 79.3357 9.65442 79.6953 9.65442C80.0551 9.65442 80.375 9.75104 80.6552 9.94427C80.6796 9.96106 80.7035 9.97852 80.7269 9.99652L80.7277 9.99713C80.8713 10.1078 80.9974 10.2417 81.1056 10.3985C81.428 10.0466 81.7081 9.70422 81.9353 9.38446L81.9565 9.35291L82.1071 9.13422L82.2161 8.95166C82.0219 8.76978 81.8077 8.61237 81.5735 8.47955C81.41 8.38684 81.2415 8.30756 81.0677 8.24176L81.0675 8.2417L81.0668 8.24139L81.0665 8.24133ZM52.5363 8.14716L55.618 15.8626L53.7502 15.8626L52.6089 12.7954L51.7061 10.3922L50.8448 12.7954L50.8529 12.7948L50.2949 14.3026L49.7346 15.8626L47.9706 15.8626L50.9694 8.14716L52.5363 8.14716ZM68.3341 9.73877L68.3341 8.14716L62.0045 8.14716L62.0045 9.73877L64.2874 9.73877L64.2874 15.8626L66.0513 15.8626L66.0513 9.73877L68.3341 9.73877ZM70.9095 15.8626L69.1351 15.8626L69.1351 8.14716L71.8953 8.14716L72.1022 8.15106C72.6456 8.17188 73.1249 8.276 73.5399 8.46338C74.007 8.67419 74.3649 8.97284 74.6139 9.35931C74.6656 9.43958 74.712 9.52246 74.7531 9.60797L74.7531 9.60797C74.9093 9.93384 74.9874 10.2971 74.9874 10.6979C74.9874 11.1061 74.9066 11.4744 74.7448 11.8029C74.7144 11.8646 74.6812 11.9249 74.645 11.9838C74.4421 12.3148 74.1599 12.5848 73.7986 12.7937L73.6593 12.8692L75.7035 15.8626L73.597 15.8521L70.9095 11.7412L71.6877 11.7414C72.082 11.7414 72.4193 11.6624 72.6995 11.5042C72.795 11.4503 72.8743 11.3835 72.9373 11.3038L72.9374 11.3037L72.9374 11.3037C73.059 11.1498 73.1198 10.9478 73.1198 10.6979C73.1198 10.0392 72.683 9.69556 71.8096 9.66693L71.6877 9.66498L70.9095 9.66498L70.9095 15.8626ZM83.5669 8.41254C83.3615 8.1524 82.7074 8.10669 82.1694 8.37695L82.7904 8.79999C82.7904 8.79999 82.8442 8.77014 82.9531 8.7525C83.062 8.73492 83.1277 8.76758 83.1322 8.77338C83.1385 8.78137 83.1377 8.80701 83.1284 8.84851L83.1132 8.90576L83.0891 8.97748L83.0358 9.11066L82.9879 9.21552C82.926 9.34497 82.8429 9.49902 82.7347 9.67255L82.6665 9.77838L82.6162 9.85413L82.5815 9.90607C82.0312 10.7061 81.144 11.6425 80.0917 12.5162C79.0392 13.39 77.9615 14.0851 77.0839 14.4707L76.9962 14.5084L76.8292 14.5757C76.6412 14.6481 76.4769 14.6995 76.3406 14.7347L76.2306 14.7609L76.0924 14.7867L76.019 14.7958L75.9613 14.7993C75.9198 14.8 75.8951 14.7955 75.8888 14.7875C75.8812 14.7778 75.8839 14.7428 75.8992 14.6855L75.9188 14.621L75.9473 14.5423L75.9852 14.4502L76.0331 14.3453L76.0588 14.2272C76.0588 14.2272 75.8086 13.598 75.7771 13.6498L75.6877 13.8032C75.3495 14.4066 75.2488 14.8882 75.4542 15.1483C75.6339 15.3759 76.0242 15.4037 76.5516 15.2639L76.7061 15.2194C76.8535 15.1737 77.0103 15.1163 77.1749 15.0478C77.2261 15.0958 77.2786 15.1422 77.3325 15.1868L77.3334 15.1875L77.3335 15.1876L77.3336 15.1877L77.3337 15.1878L77.335 15.1888C77.4849 15.3126 77.6456 15.4231 77.8173 15.5204C77.9601 15.6014 78.1072 15.6722 78.2583 15.7327L78.2584 15.7328C78.7035 15.9109 79.1842 16 79.7006 16C80.1864 16 80.6417 15.9196 81.0665 15.7587L81.0668 15.7586C81.2407 15.6927 81.4097 15.6133 81.5735 15.5204C82.1373 15.2007 82.5852 14.7387 82.9172 14.1344C83.2493 13.5301 83.4153 12.8169 83.4153 11.9948C83.4153 11.3171 83.3005 10.7123 83.071 10.1804C83.1882 10.0069 83.2898 9.84039 83.3744 9.68286L83.4489 9.53729C83.6919 9.03729 83.7466 8.64008 83.5669 8.41254ZM81.5422 11.9644L81.3881 12.1142C81.3226 12.1768 81.256 12.2394 81.1884 12.3021L80.9822 12.49L80.7699 12.6776L80.6615 12.7712L80.4403 12.9578L80.2163 13.1408L80.1045 13.23L79.8813 13.404L79.6593 13.5717L79.4385 13.7328L79.2195 13.8875L79.0027 14.0353L78.8951 14.1066L78.8502 14.1356C79.1005 14.2821 79.3822 14.3553 79.6953 14.3553C80.0551 14.3553 80.375 14.2587 80.6552 14.0655C80.9353 13.8723 81.1533 13.5964 81.309 13.2381C81.4646 12.8797 81.5424 12.4651 81.5424 11.9943C81.5424 11.9845 81.5424 11.9745 81.5422 11.9644Z" clip-rule="evenodd" fill="#000000" fill-opacity="1.000000" fill-rule="evenodd"/>
	</g>
	<g mask="url(#mask9_1117)">
		<path id="PRO" d="M70.9402 32.5C71.9541 32.5 72.8284 32.2806 73.563 31.842C74.2976 31.4033 74.8633 30.7897 75.2599 30.001C75.6566 29.2123 75.8549 28.2953 75.8549 27.25C75.8549 26.2047 75.6566 25.2877 75.2599 24.499C74.8633 23.7103 74.2976 23.0967 73.563 22.658C72.8284 22.2194 71.9541 22 70.9402 22C69.9263 22 69.052 22.2194 68.3173 22.658C68.0233 22.8336 67.7563 23.0372 67.5164 23.2689C67.157 23.616 66.8583 24.026 66.6204 24.499C66.2238 25.2877 66.0254 26.2047 66.0254 27.25C66.0254 28.2953 66.2238 29.2123 66.6204 30.001C66.8583 30.474 67.157 30.884 67.5164 31.2311C67.7563 31.4628 68.0233 31.6664 68.3173 31.842C69.052 32.2806 69.9263 32.5 70.9402 32.5ZM49.9152 32.29L49.9152 28.874L52.281 28.874C52.3749 28.874 52.5063 28.8693 52.6753 28.86C52.8444 28.8506 52.9945 28.8367 53.126 28.818C53.7268 28.7247 54.2208 28.5263 54.6082 28.223C54.7908 28.0799 54.951 27.9194 55.0887 27.7416C55.243 27.5424 55.3693 27.3214 55.4672 27.0785C55.6526 26.6188 55.7452 26.1067 55.7452 25.542C55.7452 24.9774 55.6538 24.4651 55.4707 24.0055C55.3752 23.7659 55.2521 23.5475 55.1012 23.3505L55.1012 23.3503L55.1011 23.3503C54.9625 23.1693 54.8005 23.0062 54.6152 22.861C54.2279 22.5577 53.7316 22.3593 53.126 22.266C52.9945 22.2427 52.8455 22.2275 52.6788 22.2205C52.5122 22.2135 52.3796 22.21 52.281 22.21L48 22.21L48 32.29L49.9152 32.29ZM59.0687 32.29L59.0687 28.874L61.2054 28.8741L62.8708 32.29L65.0396 32.29L63.2089 28.5566C63.5458 28.4077 63.8295 28.2092 64.0601 27.9614L64.0604 27.961L64.0607 27.9608C64.0962 27.9226 64.1304 27.8833 64.1633 27.8428L64.265 27.7085C64.3209 27.6292 64.373 27.5478 64.4215 27.4642L64.4216 27.4641L64.4216 27.4641L64.4216 27.464L64.4216 27.464C64.7397 26.9155 64.8988 26.2749 64.8988 25.542C64.8988 24.9774 64.8073 24.4651 64.6241 24.0055C64.5287 23.7659 64.4055 23.5474 64.2545 23.3503L64.2544 23.35C64.1158 23.1691 63.954 23.0061 63.7687 22.861C63.3813 22.5577 62.885 22.3593 62.2794 22.266C62.1479 22.2427 61.999 22.2275 61.8323 22.2205C61.6656 22.2135 61.5331 22.21 61.4344 22.21L57.1534 22.21L57.1534 32.29L59.0687 32.29ZM69.3347 30.267C69.762 30.5517 70.297 30.6987 70.9402 30.708C71.5833 30.7173 72.1184 30.5797 72.5455 30.295C72.9727 30.0103 73.2931 29.6067 73.5067 29.084C73.7202 28.5613 73.827 27.95 73.827 27.25C73.827 26.55 73.7202 25.9434 73.5067 25.43C73.3501 25.0537 73.1362 24.7389 72.8649 24.4855C72.766 24.3932 72.6595 24.309 72.5455 24.233C72.1184 23.9483 71.5833 23.8013 70.9402 23.792C70.297 23.7827 69.762 23.9203 69.3347 24.205C69.2367 24.2704 69.1442 24.342 69.0574 24.4199C68.7661 24.6813 68.5382 25.0134 68.3737 25.416C68.16 25.9387 68.0532 26.55 68.0532 27.25C68.0532 27.95 68.16 28.5566 68.3737 29.07C68.5302 29.4463 68.7441 29.7611 69.0154 30.0145C69.1143 30.1068 69.2207 30.191 69.3347 30.267ZM49.9152 27.096L52.1965 27.096C52.295 27.096 52.4031 27.0913 52.5204 27.082C52.6377 27.0726 52.7457 27.054 52.8442 27.026C53.1024 26.956 53.302 26.8381 53.4427 26.6725C53.5836 26.5068 53.681 26.3225 53.735 26.1195C53.7889 25.9165 53.8159 25.724 53.8159 25.542C53.8159 25.36 53.7889 25.1675 53.735 24.9645C53.681 24.7615 53.5836 24.5771 53.4427 24.4115C53.302 24.2458 53.1024 24.128 52.8442 24.058C52.7457 24.03 52.6377 24.0114 52.5204 24.002C52.4031 23.9927 52.295 23.988 52.1965 23.988L49.9152 23.988L49.9152 27.096ZM59.0687 27.096L61.3501 27.096C61.4486 27.096 61.5566 27.0913 61.674 27.082C61.7913 27.0726 61.8993 27.054 61.9978 27.026C62.256 26.956 62.4556 26.8381 62.5963 26.6725C62.7372 26.5068 62.8346 26.3225 62.8885 26.1195C62.9425 25.9165 62.9695 25.724 62.9695 25.542C62.9695 25.36 62.9425 25.1675 62.8885 24.9645C62.8346 24.7615 62.7372 24.5771 62.5963 24.4115C62.4556 24.2458 62.256 24.128 61.9978 24.058C61.8993 24.03 61.7913 24.0114 61.674 24.002C61.5566 23.9927 61.4486 23.988 61.3501 23.988L59.0687 23.988L59.0687 27.096Z" clip-rule="evenodd" fill="#000000" fill-opacity="1.000000" fill-rule="evenodd"/>
	</g>
</svg>
