<svg width="14.000000" height="14.000000" viewBox="0 0 14 14" fill="none" xmlns="http://www.w3.org/2000/svg" xmlns:xlink="http://www.w3.org/1999/xlink">
	<desc>
			Created with Pixso.
	</desc>
	<defs>
		<clipPath id="clip95_16272">
			<rect id="svg" width="14.000000" height="14.000000" transform="matrix(-1 0 0 1 14 0)" fill="white" fill-opacity="0"/>
		</clipPath>
	</defs>
	<g clip-path="url(#clip95_16272)">
		<path id="ic_public_recall_2_0" d="M13.56 6.99C13.56 5.96 13.56 4.94 13.56 3.91C13.56 3.42 13.5 2.92 13.37 2.44C13.11 1.43 12.44 0.82 11.43 0.59C10.92 0.48 10.4 0.43 9.87 0.43C7.91 0.43 5.94 0.43 3.98 0.43C3.48 0.43 2.98 0.49 2.5 0.6C1.45 0.86 0.83 1.52 0.59 2.57C0.48 3.06 0.43 3.56 0.43 4.07C0.43 6.06 0.43 8.04 0.43 10.03C0.43 10.52 0.49 11.01 0.6 11.49C0.86 12.54 1.52 13.16 2.57 13.4C3.08 13.51 3.6 13.56 4.12 13.56C6.08 13.56 8.04 13.56 9.99 13.56C10.49 13.56 10.99 13.5 11.48 13.39C12.53 13.13 13.16 12.47 13.4 11.42C13.52 10.89 13.56 10.35 13.56 9.81C13.56 8.87 13.56 7.93 13.56 6.99Z" fill="#FFFFFF" fill-opacity="0" fill-rule="nonzero"/>
		<path id="ic_public_recall_2_0" d="M13.56 3.91C13.56 3.42 13.5 2.92 13.37 2.44C13.11 1.43 12.44 0.82 11.43 0.59C10.92 0.48 10.4 0.43 9.87 0.43C7.91 0.43 5.94 0.43 3.98 0.43C3.48 0.43 2.98 0.49 2.5 0.6C1.45 0.86 0.83 1.52 0.59 2.57C0.48 3.06 0.43 3.56 0.43 4.07C0.43 6.06 0.43 8.04 0.43 10.03C0.43 10.52 0.49 11.01 0.6 11.49C0.86 12.54 1.52 13.16 2.57 13.4C3.08 13.51 3.6 13.56 4.12 13.56C6.08 13.56 8.04 13.56 9.99 13.56C10.49 13.56 10.99 13.5 11.48 13.39C12.53 13.13 13.16 12.47 13.4 11.42C13.52 10.89 13.56 10.35 13.56 9.81C13.56 8.87 13.56 7.93 13.56 6.99C13.56 5.96 13.56 4.94 13.56 3.91Z" stroke="#FFFFFF" stroke-opacity="0" stroke-width="0.997500"/>
		<g opacity="0.200000">
			<path id="ic_public_recall_2_1" d="M13.56 6.99C13.56 5.96 13.56 4.94 13.56 3.91C13.56 3.42 13.5 2.92 13.37 2.44C13.11 1.43 12.44 0.82 11.43 0.59C10.92 0.48 10.4 0.43 9.87 0.43C7.91 0.43 5.94 0.43 3.98 0.43C3.48 0.43 2.98 0.49 2.5 0.6C1.45 0.86 0.83 1.52 0.59 2.57C0.48 3.06 0.43 3.56 0.43 4.07C0.43 6.06 0.43 8.04 0.43 10.03C0.43 10.52 0.49 11.01 0.6 11.49C0.86 12.54 1.52 13.16 2.57 13.4C3.08 13.51 3.6 13.56 4.12 13.56C6.08 13.56 8.04 13.56 9.99 13.56C10.49 13.56 10.99 13.5 11.48 13.39C12.53 13.13 13.16 12.47 13.4 11.42C13.52 10.89 13.56 10.35 13.56 9.81C13.56 8.87 13.56 7.93 13.56 6.99Z" fill="#000000" fill-opacity="0" fill-rule="nonzero"/>
			<path id="ic_public_recall_2_1" d="M13.56 3.91C13.56 3.42 13.5 2.92 13.37 2.44C13.11 1.43 12.44 0.82 11.43 0.59C10.92 0.48 10.4 0.43 9.87 0.43C7.91 0.43 5.94 0.43 3.98 0.43C3.48 0.43 2.98 0.49 2.5 0.6C1.45 0.86 0.83 1.52 0.59 2.57C0.48 3.06 0.43 3.56 0.43 4.07C0.43 6.06 0.43 8.04 0.43 10.03C0.43 10.52 0.49 11.01 0.6 11.49C0.86 12.54 1.52 13.16 2.57 13.4C3.08 13.51 3.6 13.56 4.12 13.56C6.08 13.56 8.04 13.56 9.99 13.56C10.49 13.56 10.99 13.5 11.48 13.39C12.53 13.13 13.16 12.47 13.4 11.42C13.52 10.89 13.56 10.35 13.56 9.81C13.56 8.87 13.56 7.93 13.56 6.99C13.56 5.96 13.56 4.94 13.56 3.91Z" stroke="#FFFFFF" stroke-opacity="0" stroke-width="0.997500"/>
		</g>
		<circle id="ic_public_recall_2_2" r="7.000000" transform="matrix(-1 0 0 1 7 7)" fill="#FFFFFF" fill-opacity="0"/>
		<circle id="ic_public_recall_2_2" r="7.000000" transform="matrix(-1 0 0 1 7 7)" stroke="#000000" stroke-opacity="0" stroke-width="0.997500"/>
		<path id="ic_public_recall_2_3" d="M1 11.79C0.7 11.15 1.52 8.79 3.31 7.09C4.51 5.96 6.21 5.32 8.41 5.19L8.41 2.17L13.05 6.88L8.41 11.61L8.41 8.56C6.99 8.56 5.75 8.7 4.68 8.99C1.66 9.79 1.15 12.1 1 11.79Z" fill="#FFFFFF" fill-opacity="0" fill-rule="evenodd"/>
		<path id="ic_public_recall_2_3" d="M3.31 7.09C4.51 5.96 6.21 5.32 8.41 5.19L8.41 2.17L13.05 6.88L8.41 11.61L8.41 8.56C6.99 8.56 5.75 8.7 4.68 8.99C1.66 9.79 1.15 12.1 1 11.79C0.7 11.15 1.52 8.79 3.31 7.09Z" stroke="#DBDBDB" stroke-opacity="1.000000" stroke-width="0.997500" stroke-linejoin="round"/>
	</g>
</svg>
