<svg width="16.000000" height="16.000000" viewBox="0 0 16 16" fill="none" xmlns="http://www.w3.org/2000/svg" xmlns:xlink="http://www.w3.org/1999/xlink">
	<desc>
			Created with Pixso.
	</desc>
	<defs>
		<clipPath id="clip95_16272">
			<rect id="svg" width="14.000000" height="14.000000" transform="matrix(-1 0 0 1 15 1)" fill="white" fill-opacity="0"/>
		</clipPath>
	</defs>
	<g clip-path="url(#clip95_16272)">
		<path id="ic_public_recall_2_0" d="M14.56 7.99C14.56 6.96 14.56 5.94 14.56 4.91C14.56 4.42 14.5 3.92 14.37 3.44C14.11 2.43 13.44 1.82 12.43 1.59C11.92 1.48 11.4 1.43 10.87 1.43C8.91 1.43 6.94 1.43 4.98 1.43C4.48 1.43 3.98 1.49 3.5 1.6C2.45 1.86 1.83 2.52 1.59 3.57C1.48 4.06 1.43 4.56 1.43 5.07C1.43 7.06 1.43 9.04 1.43 11.03C1.43 11.52 1.49 12.01 1.6 12.49C1.86 13.54 2.52 14.16 3.57 14.4C4.08 14.51 4.6 14.56 5.12 14.56C7.08 14.56 9.04 14.56 10.99 14.56C11.49 14.56 11.99 14.5 12.48 14.39C13.53 14.13 14.16 13.47 14.4 12.42C14.52 11.89 14.56 11.35 14.56 10.81C14.56 9.87 14.56 8.93 14.56 7.99Z" fill="#FFFFFF" fill-opacity="0" fill-rule="nonzero"/>
		<path id="ic_public_recall_2_0" d="M14.56 4.91C14.56 4.42 14.5 3.92 14.37 3.44C14.11 2.43 13.44 1.82 12.43 1.59C11.92 1.48 11.4 1.43 10.87 1.43C8.91 1.43 6.94 1.43 4.98 1.43C4.48 1.43 3.98 1.49 3.5 1.6C2.45 1.86 1.83 2.52 1.59 3.57C1.48 4.06 1.43 4.56 1.43 5.07C1.43 7.06 1.43 9.04 1.43 11.03C1.43 11.52 1.49 12.01 1.6 12.49C1.86 13.54 2.52 14.16 3.57 14.4C4.08 14.51 4.6 14.56 5.12 14.56C7.08 14.56 9.04 14.56 10.99 14.56C11.49 14.56 11.99 14.5 12.48 14.39C13.53 14.13 14.16 13.47 14.4 12.42C14.52 11.89 14.56 11.35 14.56 10.81C14.56 9.87 14.56 8.93 14.56 7.99C14.56 6.96 14.56 5.94 14.56 4.91Z" stroke="#FFFFFF" stroke-opacity="0" stroke-width="0.997500"/>
		<g opacity="0.200000">
			<path id="ic_public_recall_2_1" d="M14.56 7.99C14.56 6.96 14.56 5.94 14.56 4.91C14.56 4.42 14.5 3.92 14.37 3.44C14.11 2.43 13.44 1.82 12.43 1.59C11.92 1.48 11.4 1.43 10.87 1.43C8.91 1.43 6.94 1.43 4.98 1.43C4.48 1.43 3.98 1.49 3.5 1.6C2.45 1.86 1.83 2.52 1.59 3.57C1.48 4.06 1.43 4.56 1.43 5.07C1.43 7.06 1.43 9.04 1.43 11.03C1.43 11.52 1.49 12.01 1.6 12.49C1.86 13.54 2.52 14.16 3.57 14.4C4.08 14.51 4.6 14.56 5.12 14.56C7.08 14.56 9.04 14.56 10.99 14.56C11.49 14.56 11.99 14.5 12.48 14.39C13.53 14.13 14.16 13.47 14.4 12.42C14.52 11.89 14.56 11.35 14.56 10.81C14.56 9.87 14.56 8.93 14.56 7.99Z" fill="#000000" fill-opacity="0" fill-rule="nonzero"/>
			<path id="ic_public_recall_2_1" d="M14.56 4.91C14.56 4.42 14.5 3.92 14.37 3.44C14.11 2.43 13.44 1.82 12.43 1.59C11.92 1.48 11.4 1.43 10.87 1.43C8.91 1.43 6.94 1.43 4.98 1.43C4.48 1.43 3.98 1.49 3.5 1.6C2.45 1.86 1.83 2.52 1.59 3.57C1.48 4.06 1.43 4.56 1.43 5.07C1.43 7.06 1.43 9.04 1.43 11.03C1.43 11.52 1.49 12.01 1.6 12.49C1.86 13.54 2.52 14.16 3.57 14.4C4.08 14.51 4.6 14.56 5.12 14.56C7.08 14.56 9.04 14.56 10.99 14.56C11.49 14.56 11.99 14.5 12.48 14.39C13.53 14.13 14.16 13.47 14.4 12.42C14.52 11.89 14.56 11.35 14.56 10.81C14.56 9.87 14.56 8.93 14.56 7.99C14.56 6.96 14.56 5.94 14.56 4.91Z" stroke="#FFFFFF" stroke-opacity="0" stroke-width="0.997500"/>
		</g>
		<circle id="ic_public_recall_2_2" r="7.000000" transform="matrix(-1 0 0 1 8 8)" fill="#FFFFFF" fill-opacity="0"/>
		<circle id="ic_public_recall_2_2" r="7.000000" transform="matrix(-1 0 0 1 8 8)" stroke="#000000" stroke-opacity="0" stroke-width="0.997500"/>
		<path id="ic_public_recall_2_3" d="M2 12.79C1.7 12.15 2.52 9.79 4.31 8.09C5.51 6.96 7.21 6.32 9.41 6.19L9.41 3.17L14.05 7.88L9.41 12.61L9.41 9.56C7.99 9.56 6.75 9.7 5.68 9.99C2.66 10.79 2.15 13.1 2 12.79Z" fill="#FFFFFF" fill-opacity="0" fill-rule="evenodd"/>
		<path id="ic_public_recall_2_3" d="M4.31 8.09C5.51 6.96 7.21 6.32 9.41 6.19L9.41 3.17L14.05 7.88L9.41 12.61L9.41 9.56C7.99 9.56 6.75 9.7 5.68 9.99C2.66 10.79 2.15 13.1 2 12.79C1.7 12.15 2.52 9.79 4.31 8.09Z" stroke="#DBDBDB" stroke-opacity="1.000000" stroke-width="0.997500" stroke-linejoin="round"/>
	</g>
</svg>
