<svg width="17.000000" height="16.000000" viewBox="0 0 17 16" fill="none" xmlns="http://www.w3.org/2000/svg" xmlns:xlink="http://www.w3.org/1999/xlink">
	<desc>
			Created with Pixso.
	</desc>
	<defs/>
	<rect id="操作图标/重置" width="16.000000" height="16.000000" transform="matrix(-1 0 0 1 16 0)" fill="#FFFFFF" fill-opacity="0"/>
	<path id="合并" d="M7.07422 1C5.22168 1 3.3689 1.8421 2.13379 3.07721C0.730469 4.48071 0.0566406 6.16492 0.000488281 7.84912C0.000488281 9.70178 0.842529 11.5544 2.07764 12.7895C3.3689 14.193 5.16553 14.8666 7.01807 14.8666C8.36548 14.8666 9.54443 14.5298 10.6672 13.8561L10.1057 12.9579C9.31982 13.5193 8.14087 13.8561 7.13037 13.8561C3.93042 13.8561 1.29175 11.2175 1.29175 8.01752C1.29175 4.81757 3.93042 2.17896 7.13037 2.17896C10.1995 2.17896 12.8247 4.67474 12.9666 7.73694L12.9661 7.73694L12.9661 8.29834L11.6187 7.06329C11.5063 6.83868 11.0571 6.72644 10.8328 6.95099C10.552 7.23169 10.552 7.56854 10.8889 7.9054L12.9661 9.98254C13.1907 10.2072 13.6958 10.2072 13.8643 9.98254L15.9414 7.9054C16.166 7.68085 16.166 7.40015 15.9414 7.11938C15.7168 6.83868 15.3801 6.83868 15.0994 7.06329L14.0889 8.07379L14.0889 7.79297L14.0918 7.79297C14.0908 7.77747 14.0898 7.7619 14.0889 7.7464L14.0889 7.73694L14.0881 7.73694C13.9646 5.90527 13.2361 4.18756 11.9023 2.9649C10.6111 1.67371 8.92676 1 7.07422 1Z" clip-rule="evenodd" fill="#191919" fill-opacity="1.000000" fill-rule="evenodd"/>
</svg>
