<svg width="16.000000" height="16.000000" viewBox="0 0 16 16" fill="none" xmlns="http://www.w3.org/2000/svg" xmlns:xlink="http://www.w3.org/1999/xlink">
	<desc>
			Created with Pixso.
	</desc>
	<defs>
		<clipPath id="clip95_16268">
			<rect id="操作图标/保存" width="16.000000" height="16.000000" transform="matrix(-1 0 0 1 16 0)" fill="white" fill-opacity="0"/>
		</clipPath>
	</defs>
	<g clip-path="url(#clip95_16268)">
		<path id="形状结合" d="M3 1.5C2.17 1.5 1.5 2.17 1.5 3L1.5 13C1.5 13.82 2.17 14.5 3 14.5L13 14.5C13.82 14.5 14.5 13.82 14.5 13L14.5 3C14.5 2.17 13.82 1.5 13 1.5L3 1.5ZM11.16 2.5L13 2.5C13.27 2.5 13.5 2.72 13.5 3L13.5 13C13.5 13.27 13.27 13.5 13 13.5L3 13.5C2.72 13.5 2.5 13.27 2.5 13L2.5 3C2.5 2.72 2.72 2.5 3 2.5L4.83 2.5L4.83 5.33C4.83 5.57 5.01 5.78 5.24 5.82L10.66 5.83C10.94 5.83 11.16 5.6 11.16 5.33L11.16 2.5ZM5.66 11.5C5.39 11.5 5.16 11.72 5.16 12C5.16 12.24 5.34 12.44 5.57 12.49L10.33 12.5C10.6 12.5 10.83 12.27 10.83 12C10.83 11.75 10.65 11.55 10.42 11.5L5.66 11.5ZM5.83 2.5L10.16 2.5L10.16 4.83L5.83 4.83L5.83 2.5Z" fill="#191919" fill-opacity="1.000000" fill-rule="nonzero"/>
		<path id="形状结合" d="M1.5 3L1.5 13C1.5 13.82 2.17 14.5 3 14.5L13 14.5C13.82 14.5 14.5 13.82 14.5 13L14.5 3C14.5 2.17 13.82 1.5 13 1.5L3 1.5C2.17 1.5 1.5 2.17 1.5 3ZM13 2.5C13.27 2.5 13.5 2.72 13.5 3L13.5 13C13.5 13.27 13.27 13.5 13 13.5L3 13.5C2.72 13.5 2.5 13.27 2.5 13L2.5 3C2.5 2.72 2.72 2.5 3 2.5L4.83 2.5L4.83 5.33C4.83 5.57 5.01 5.78 5.24 5.82L10.66 5.83C10.94 5.83 11.16 5.6 11.16 5.33L11.16 2.5L13 2.5ZM5.16 12C5.16 12.24 5.34 12.44 5.57 12.49L10.33 12.5C10.6 12.5 10.83 12.27 10.83 12C10.83 11.75 10.65 11.55 10.42 11.5L5.66 11.5C5.39 11.5 5.16 11.72 5.16 12ZM10.16 2.5L10.16 4.83L5.83 4.83L5.83 2.5L10.16 2.5Z" stroke="#000000" stroke-opacity="0" stroke-width="1.000000"/>
	</g>
</svg>
