<svg width="16.000000" height="16.000000" viewBox="0 0 16 16" fill="none" xmlns="http://www.w3.org/2000/svg" xmlns:xlink="http://www.w3.org/1999/xlink">
	<desc>
			Created with Pixso.
	</desc>
	<defs>
		<clipPath id="clip95_16267">
			<rect id="操作图标/设置" width="16.000000" height="16.000000" transform="matrix(-1 0 0 1 16 0)" fill="white" fill-opacity="0"/>
		</clipPath>
	</defs>
	<g clip-path="url(#clip95_16267)">
		<path id="形状结合" d="M6.57 0.77C6.47 0.56 6.22 0.45 5.98 0.51C4.82 0.85 3.76 1.47 2.88 2.32C2.73 2.47 2.69 2.7 2.78 2.89C2.89 3.12 2.94 3.38 2.94 3.64C2.94 4.58 2.22 5.33 1.35 5.33C1.13 5.33 0.9 5.47 0.84 5.68C0.61 6.43 0.5 7.22 0.5 8.01C0.5 8.54 0.55 9.07 0.65 9.58C0.7 9.83 0.93 10.01 1.19 9.98C1.24 9.97 1.29 9.97 1.35 9.97C2.22 9.97 2.94 10.72 2.94 11.66C2.94 12.06 2.81 12.45 2.56 12.75C2.41 12.94 2.41 13.22 2.58 13.4C3.48 14.37 4.6 15.09 5.85 15.47C6.11 15.55 6.39 15.41 6.47 15.14C6.68 14.45 7.3 13.98 8 13.98C8.69 13.98 9.31 14.45 9.52 15.14C9.6 15.41 9.88 15.55 10.14 15.47C11.39 15.09 12.51 14.37 13.41 13.4C13.58 13.22 13.58 12.94 13.43 12.75C13.18 12.45 13.05 12.06 13.05 11.66C13.05 10.72 13.77 9.97 14.64 9.97C14.7 9.97 14.75 9.97 14.8 9.98C15.06 10.01 15.29 9.83 15.34 9.58C15.44 9.07 15.5 8.54 15.5 8.01C15.5 7.22 15.38 6.43 15.15 5.68C15.09 5.47 14.89 5.33 14.67 5.33L14.51 5.32C13.69 5.25 13.05 4.53 13.05 3.64C13.05 3.38 13.1 3.12 13.21 2.89C13.3 2.7 13.26 2.47 13.11 2.32C12.23 1.47 11.17 0.85 10.01 0.51C9.77 0.45 9.52 0.56 9.42 0.77C9.14 1.33 8.6 1.69 8 1.69C7.39 1.69 6.85 1.33 6.57 0.77ZM5.9 1.59C6.38 2.21 7.19 2.69 8 2.69C8.8 2.69 9.54 2.31 10.02 1.68L10.32 1.68C10.9 1.91 11.44 2.23 11.94 2.62L12.17 2.82C12.11 3.01 12.07 3.23 12.05 3.44L12.05 3.64C12.05 4.95 12.95 6.05 14.16 6.28L14.29 6.3C14.42 6.86 14.5 7.43 14.5 8.01C14.5 8.25 14.48 8.48 14.46 8.71L14.43 8.98L14.32 8.99C13.09 9.15 12.13 10.2 12.05 11.49L12.05 11.66C12.05 12.08 12.14 12.49 12.32 12.86L12.4 13L12.23 13.16C11.69 13.64 11.08 14.03 10.42 14.31L10.27 14.37L10.18 14.2C9.74 13.5 9 13.04 8.17 12.98L8 12.98C7.03 12.98 6.17 13.52 5.72 14.35L5.57 14.31C4.91 14.03 4.3 13.64 3.76 13.16L3.59 13L3.67 12.86C3.82 12.55 3.91 12.22 3.94 11.87L3.94 11.66C3.94 10.29 2.96 9.16 1.67 8.99L1.56 8.98L1.53 8.71C1.52 8.59 1.51 8.48 1.5 8.36L1.5 8.01C1.5 7.55 1.54 7.09 1.63 6.64L1.7 6.3L1.83 6.28C2.99 6.06 3.87 5.05 3.94 3.81L3.94 3.64C3.94 3.37 3.9 3.1 3.83 2.84L4.05 2.62C4.55 2.23 5.09 1.91 5.67 1.68L5.9 1.59ZM8 5.18C6.43 5.18 5.16 6.45 5.16 8.01C5.16 9.58 6.43 10.85 8 10.85C9.56 10.85 10.83 9.58 10.83 8.01C10.83 6.45 9.56 5.18 8 5.18ZM8 6.18C9.01 6.18 9.83 7 9.83 8.01C9.83 9.03 9.01 9.85 8 9.85C6.98 9.85 6.16 9.03 6.16 8.01C6.16 7 6.98 6.18 8 6.18Z" fill="#191919" fill-opacity="1.000000" fill-rule="evenodd"/>
		<path id="形状结合" d="M5.98 0.51C4.82 0.85 3.76 1.47 2.88 2.32C2.73 2.47 2.69 2.7 2.78 2.89C2.89 3.12 2.94 3.38 2.94 3.64C2.94 4.58 2.22 5.33 1.35 5.33C1.13 5.33 0.9 5.47 0.84 5.68C0.61 6.43 0.5 7.22 0.5 8.01C0.5 8.54 0.55 9.07 0.65 9.58C0.7 9.83 0.93 10.01 1.19 9.98C1.24 9.97 1.29 9.97 1.35 9.97C2.22 9.97 2.94 10.72 2.94 11.66C2.94 12.06 2.81 12.45 2.56 12.75C2.41 12.94 2.41 13.22 2.58 13.4C3.48 14.37 4.6 15.09 5.85 15.47C6.11 15.55 6.39 15.41 6.47 15.14C6.68 14.45 7.3 13.98 8 13.98C8.69 13.98 9.31 14.45 9.52 15.14C9.6 15.41 9.88 15.55 10.14 15.47C11.39 15.09 12.51 14.37 13.41 13.4C13.58 13.22 13.58 12.94 13.43 12.75C13.18 12.45 13.05 12.06 13.05 11.66C13.05 10.72 13.77 9.97 14.64 9.97C14.7 9.97 14.75 9.97 14.8 9.98C15.06 10.01 15.29 9.83 15.34 9.58C15.44 9.07 15.5 8.54 15.5 8.01C15.5 7.22 15.38 6.43 15.15 5.68C15.09 5.47 14.89 5.33 14.67 5.33L14.51 5.32C13.69 5.25 13.05 4.53 13.05 3.64C13.05 3.38 13.1 3.12 13.21 2.89C13.3 2.7 13.26 2.47 13.11 2.32C12.23 1.47 11.17 0.85 10.01 0.51C9.77 0.45 9.52 0.56 9.42 0.77C9.14 1.33 8.6 1.69 8 1.69C7.39 1.69 6.85 1.33 6.57 0.77C6.47 0.56 6.22 0.45 5.98 0.51ZM8 2.69C8.8 2.69 9.54 2.31 10.02 1.68L10.32 1.68C10.9 1.91 11.44 2.23 11.94 2.62L12.17 2.82C12.11 3.01 12.07 3.23 12.05 3.44L12.05 3.64C12.05 4.95 12.95 6.05 14.16 6.28L14.29 6.3C14.42 6.86 14.5 7.43 14.5 8.01C14.5 8.25 14.48 8.48 14.46 8.71L14.43 8.98L14.32 8.99C13.09 9.15 12.13 10.2 12.05 11.49L12.05 11.66C12.05 12.08 12.14 12.49 12.32 12.86L12.4 13L12.23 13.16C11.69 13.64 11.08 14.03 10.42 14.31L10.27 14.37L10.18 14.2C9.74 13.5 9 13.04 8.17 12.98L8 12.98C7.03 12.98 6.17 13.52 5.72 14.35L5.57 14.31C4.91 14.03 4.3 13.64 3.76 13.16L3.59 13L3.67 12.86C3.82 12.55 3.91 12.22 3.94 11.87L3.94 11.66C3.94 10.29 2.96 9.16 1.67 8.99L1.56 8.98L1.53 8.71C1.52 8.59 1.51 8.48 1.5 8.36L1.5 8.01C1.5 7.55 1.54 7.09 1.63 6.64L1.7 6.3L1.83 6.28C2.99 6.06 3.87 5.05 3.94 3.81L3.94 3.64C3.94 3.37 3.9 3.1 3.83 2.84L4.05 2.62C4.55 2.23 5.09 1.91 5.67 1.68L5.9 1.59C6.38 2.21 7.19 2.69 8 2.69ZM5.16 8.01C5.16 9.58 6.43 10.85 8 10.85C9.56 10.85 10.83 9.58 10.83 8.01C10.83 6.45 9.56 5.18 8 5.18C6.43 5.18 5.16 6.45 5.16 8.01ZM9.83 8.01C9.83 9.03 9.01 9.85 8 9.85C6.98 9.85 6.16 9.03 6.16 8.01C6.16 7 6.98 6.18 8 6.18C9.01 6.18 9.83 7 9.83 8.01Z" stroke="#000000" stroke-opacity="0" stroke-width="1.000000"/>
	</g>
</svg>
