<svg width="16.000000" height="16.000000" viewBox="0 0 16 16" fill="none" xmlns="http://www.w3.org/2000/svg" xmlns:xlink="http://www.w3.org/1999/xlink">
	<desc>
			Created with Pixso.
	</desc>
	<defs>
		<clipPath id="clip95_16245">
			<rect id="svg" width="14.000000" height="14.000000" transform="translate(1.000000 1.000000)" fill="white" fill-opacity="0"/>
		</clipPath>
	</defs>
	<g clip-path="url(#clip95_16245)">
		<path id="ic_public_recall_2_0" d="M1.43 7.99C1.43 6.96 1.43 5.94 1.43 4.91C1.43 4.42 1.49 3.92 1.62 3.44C1.88 2.43 2.55 1.82 3.56 1.59C4.07 1.48 4.59 1.43 5.12 1.43C7.08 1.43 9.05 1.43 11.01 1.43C11.51 1.43 12.01 1.49 12.49 1.6C13.54 1.86 14.16 2.52 14.4 3.57C14.51 4.06 14.56 4.56 14.56 5.07C14.56 7.06 14.56 9.04 14.56 11.03C14.56 11.52 14.5 12.01 14.39 12.49C14.13 13.54 13.47 14.16 12.42 14.4C11.91 14.51 11.39 14.56 10.87 14.56C8.91 14.56 6.95 14.56 5 14.56C4.5 14.56 4 14.5 3.51 14.39C2.46 14.13 1.83 13.47 1.59 12.42C1.47 11.89 1.43 11.35 1.43 10.81C1.43 9.87 1.43 8.93 1.43 7.99Z" fill="#FFFFFF" fill-opacity="0" fill-rule="nonzero"/>
		<path id="ic_public_recall_2_0" d="M1.43 4.91C1.43 4.42 1.49 3.92 1.62 3.44C1.88 2.43 2.55 1.82 3.56 1.59C4.07 1.48 4.59 1.43 5.12 1.43C7.08 1.43 9.05 1.43 11.01 1.43C11.51 1.43 12.01 1.49 12.49 1.6C13.54 1.86 14.16 2.52 14.4 3.57C14.51 4.06 14.56 4.56 14.56 5.07C14.56 7.06 14.56 9.04 14.56 11.03C14.56 11.52 14.5 12.01 14.39 12.49C14.13 13.54 13.47 14.16 12.42 14.4C11.91 14.51 11.39 14.56 10.87 14.56C8.91 14.56 6.95 14.56 5 14.56C4.5 14.56 4 14.5 3.51 14.39C2.46 14.13 1.83 13.47 1.59 12.42C1.47 11.89 1.43 11.35 1.43 10.81C1.43 9.87 1.43 8.93 1.43 7.99C1.43 6.96 1.43 5.94 1.43 4.91Z" stroke="#FFFFFF" stroke-opacity="0" stroke-width="0.997500"/>
		<g opacity="0.200000">
			<path id="ic_public_recall_2_1" d="M1.43 7.99C1.43 6.96 1.43 5.94 1.43 4.91C1.43 4.42 1.49 3.92 1.62 3.44C1.88 2.43 2.55 1.82 3.56 1.59C4.07 1.48 4.59 1.43 5.12 1.43C7.08 1.43 9.05 1.43 11.01 1.43C11.51 1.43 12.01 1.49 12.49 1.6C13.54 1.86 14.16 2.52 14.4 3.57C14.51 4.06 14.56 4.56 14.56 5.07C14.56 7.06 14.56 9.04 14.56 11.03C14.56 11.52 14.5 12.01 14.39 12.49C14.13 13.54 13.47 14.16 12.42 14.4C11.91 14.51 11.39 14.56 10.87 14.56C8.91 14.56 6.95 14.56 5 14.56C4.5 14.56 4 14.5 3.51 14.39C2.46 14.13 1.83 13.47 1.59 12.42C1.47 11.89 1.43 11.35 1.43 10.81C1.43 9.87 1.43 8.93 1.43 7.99Z" fill="#000000" fill-opacity="0" fill-rule="nonzero"/>
			<path id="ic_public_recall_2_1" d="M1.43 4.91C1.43 4.42 1.49 3.92 1.62 3.44C1.88 2.43 2.55 1.82 3.56 1.59C4.07 1.48 4.59 1.43 5.12 1.43C7.08 1.43 9.05 1.43 11.01 1.43C11.51 1.43 12.01 1.49 12.49 1.6C13.54 1.86 14.16 2.52 14.4 3.57C14.51 4.06 14.56 4.56 14.56 5.07C14.56 7.06 14.56 9.04 14.56 11.03C14.56 11.52 14.5 12.01 14.39 12.49C14.13 13.54 13.47 14.16 12.42 14.4C11.91 14.51 11.39 14.56 10.87 14.56C8.91 14.56 6.95 14.56 5 14.56C4.5 14.56 4 14.5 3.51 14.39C2.46 14.13 1.83 13.47 1.59 12.42C1.47 11.89 1.43 11.35 1.43 10.81C1.43 9.87 1.43 8.93 1.43 7.99C1.43 6.96 1.43 5.94 1.43 4.91Z" stroke="#FFFFFF" stroke-opacity="0" stroke-width="0.997500"/>
		</g>
		<circle id="ic_public_recall_2_2" cx="8.000000" cy="8.000000" r="7.000000" fill="#FFFFFF" fill-opacity="0"/>
		<circle id="ic_public_recall_2_2" cx="8.000000" cy="8.000000" r="7.000000" stroke="#000000" stroke-opacity="0" stroke-width="0.997500"/>
		<path id="ic_public_recall_2_3" d="M13.99 12.79C14.29 12.15 13.47 9.79 11.68 8.09C10.48 6.96 8.78 6.32 6.58 6.19L6.58 3.17L1.94 7.88L6.58 12.61L6.58 9.56C8 9.56 9.24 9.7 10.31 9.99C13.33 10.79 13.84 13.1 13.99 12.79Z" fill="#FFFFFF" fill-opacity="0" fill-rule="evenodd"/>
		<path id="ic_public_recall_2_3" d="M11.68 8.09C10.48 6.96 8.78 6.32 6.58 6.19L6.58 3.17L1.94 7.88L6.58 12.61L6.58 9.56C8 9.56 9.24 9.7 10.31 9.99C13.33 10.79 13.84 13.1 13.99 12.79C14.29 12.15 13.47 9.79 11.68 8.09Z" stroke="#191919" stroke-opacity="1.000000" stroke-width="0.997500" stroke-linejoin="round"/>
	</g>
</svg>
